<svg width="749" height="204" viewBox="0 0 749 204" fill="none" xmlns="http://www.w3.org/2000/svg">
<g filter="url(#filter0_f_12_56)">
<path d="M15.5 70.667L24.0262 79.8902C32.6024 88.7685 49.9042 107.732 66.8569 121.265C83.8596 135.315 100.762 143.935 118.214 125.834C135.167 107.732 152.119 61.1853 169.571 61.4439C186.474 61.1853 203.476 107.732 220.429 121.265C237.731 135.315 254.833 116.352 271.786 125.834C289.038 135.315 306.19 171.518 323.143 157.985C340.295 143.935 357.547 80.1487 374.5 84.4586C391.602 88.7685 408.904 122.409 425.857 158.871C442.86 195.677 459.762 195.677 477.214 172.663C496.536 150.633 505.97 142.016 526.749 129.882C548.668 118.748 562.476 135.315 579.429 116.61C596.731 98.2503 613.833 43.0837 630.786 33.8606C648.038 24.9822 665.19 61.1853 682.143 66.0985C699.295 70.667 716.547 43.0837 725.024 29.2921L733.5 15.5005" stroke="url(#paint0_linear_12_56)" stroke-width="7" stroke-linecap="round"/>
</g>
<defs>
<filter id="filter0_f_12_56" x="0" y="0" width="749" height="204.006" filterUnits="userSpaceOnUse" color-interpolation-filters="sRGB">
<feFlood flood-opacity="0" result="BackgroundImageFix"/>
<feBlend mode="normal" in="SourceGraphic" in2="BackgroundImageFix" result="shape"/>
<feGaussianBlur stdDeviation="6" result="effect1_foregroundBlur_12_56"/>
</filter>
<linearGradient id="paint0_linear_12_56" x1="48" y1="55.5005" x2="743.923" y2="15.5005" gradientUnits="userSpaceOnUse">
<stop stop-color="#013442"/>
<stop offset="0.0885417" stop-color="#5BC4FF"/>
<stop offset="0.875" stop-color="#FF5BEF"/>
<stop offset="1" stop-color="#01323F"/>
</linearGradient>
</defs>
</svg>
